
<group>
lokey=33
hikey=38
trigger=release
volume=-4
amp_random=6
rt_decay=7
ampeg_release=0.600

<region>
sample=release\db2_rel_rr1.wav
hirand=0.200
pitch_keycenter=37

<region>
sample=release\db2_rel_rr2.wav
lorand=0.200
hirand=0.400
pitch_keycenter=37

<region>
sample=release\db2_rel_rr3.wav
lorand=0.400
hirand=0.600
pitch_keycenter=37

<region>
sample=release\db2_rel_rr4.wav
lorand=0.600
hirand=0.800
pitch_keycenter=37

<region>
sample=release\db2_rel_rr5.wav
lorand=0.800
pitch_keycenter=37

//========================
<group>
lokey=39
hikey=40
trigger=release
volume=-4
amp_random=6
rt_decay=7
ampeg_release=0.600

<region>
sample=release\e2_rel_rr1.wav
hirand=0.200
pitch_keycenter=40

<region>
sample=release\e2_rel_rr2.wav
lorand=0.200
hirand=0.400
pitch_keycenter=40

<region>
sample=release\e2_rel_rr3.wav
lorand=0.400
hirand=0.600
pitch_keycenter=40

<region>
sample=release\e2_rel_rr4.wav
lorand=0.600
hirand=0.800
pitch_keycenter=40

<region>
sample=release\e2_rel_rr5.wav
lorand=0.800
pitch_keycenter=40

//========================
<group>
lokey=41
hikey=43
trigger=release
volume=-4
amp_random=6
rt_decay=7
ampeg_release=0.600

<region>
sample=release\gb2_rel_rr1.wav
hirand=0.200
pitch_keycenter=42

<region>
sample=release\gb2_rel_rr2.wav
lorand=0.200
hirand=0.400
pitch_keycenter=42

<region>
sample=release\gb2_rel_rr3.wav
lorand=0.400
hirand=0.600
pitch_keycenter=42

<region>
sample=release\gb2_rel_rr4.wav
lorand=0.600
hirand=0.800
pitch_keycenter=42

<region>
sample=release\gb2_rel_rr5.wav
lorand=0.800
pitch_keycenter=42

//========================
<group>
lokey=44
hikey=46
trigger=release
volume=-4
amp_random=6
rt_decay=7
ampeg_release=0.600

<region>
sample=release\a2_rel_rr1.wav
hirand=0.200
pitch_keycenter=45

<region>
sample=release\a2_rel_rr2.wav
lorand=0.200
hirand=0.400
pitch_keycenter=45

<region>
sample=release\a2_rel_rr3.wav
lorand=0.400
hirand=0.600
pitch_keycenter=45

<region>
sample=release\a2_rel_rr4.wav
lorand=0.600
hirand=0.800
pitch_keycenter=45

<region>
sample=release\a2_rel_rr5.wav
lorand=0.800
pitch_keycenter=45

//========================
<group>
lokey=47
hikey=49
trigger=release
volume=-4
amp_random=6
rt_decay=7
ampeg_release=0.600

<region>
sample=release\c3_rel_rr1.wav
hirand=0.200
pitch_keycenter=48

<region>
sample=release\c3_rel_rr2.wav
lorand=0.200
hirand=0.400
pitch_keycenter=48

<region>
sample=release\c3_rel_rr3.wav
lorand=0.400
hirand=0.600
pitch_keycenter=48

<region>
sample=release\c3_rel_rr4.wav
lorand=0.600
hirand=0.800
pitch_keycenter=48

<region>
sample=release\c3_rel_rr5.wav
lorand=0.800
pitch_keycenter=47

//========================
<group>
lokey=50
hikey=52
trigger=release
volume=-4
amp_random=6
rt_decay=7
ampeg_release=0.600

<region>
sample=release\eb3_rel_rr1.wav
hirand=0.200
pitch_keycenter=51

<region>
sample=release\eb3_rel_rr2.wav
lorand=0.200
hirand=0.400
pitch_keycenter=51

<region>
sample=release\eb3_rel_rr3.wav
lorand=0.400
hirand=0.600
pitch_keycenter=51

<region>
sample=release\eb3_rel_rr4.wav
lorand=0.600
hirand=0.800
pitch_keycenter=51

<region>
sample=release\eb3_rel_rr5.wav
lorand=0.800
pitch_keycenter=51

//========================
<group>
lokey=53
hikey=55
trigger=release
volume=-4
amp_random=6
rt_decay=7
ampeg_release=0.600

<region>
sample=release\gb3_rel_rr1.wav
hirand=0.200
pitch_keycenter=54

<region>
sample=release\gb3_rel_rr2.wav
lorand=0.200
hirand=0.400
pitch_keycenter=54

<region>
sample=release\gb3_rel_rr3.wav
lorand=0.400
hirand=0.600
pitch_keycenter=54

<region>
sample=release\gb3_rel_rr4.wav
lorand=0.600
hirand=0.800
pitch_keycenter=54

<region>
sample=release\gb3_rel_rr5.wav
lorand=0.800
pitch_keycenter=54

//========================
<group>
lokey=56
hikey=58
trigger=release
volume=-4
amp_random=6
rt_decay=7
ampeg_release=0.600

<region>
sample=release\a3_rel_rr1.wav
hirand=0.200
pitch_keycenter=57

<region>
sample=release\a3_rel_rr2.wav
lorand=0.200
hirand=0.400
pitch_keycenter=57

<region>
sample=release\a3_rel_rr3.wav
lorand=0.400
hirand=0.600
pitch_keycenter=57

<region>
sample=release\a3_rel_rr4.wav
lorand=0.600
hirand=0.800
pitch_keycenter=57

<region>
sample=release\a3_rel_rr5.wav
lorand=0.800
pitch_keycenter=57

//========================
<group>
lokey=59
hikey=61
trigger=release
volume=-4
amp_random=6
rt_decay=7
ampeg_release=0.600

<region>
sample=release\c4_rel_rr1.wav
hirand=0.200

<region>
sample=release\c4_rel_rr2.wav
lorand=0.200
hirand=0.400

<region>
sample=release\c4_rel_rr3.wav
lorand=0.400
hirand=0.600

<region>
sample=release\c4_rel_rr4.wav
lorand=0.600
hirand=0.800

<region>
sample=release\c4_rel_rr5.wav
lorand=0.800

//========================
<group>
lokey=62
hikey=64
trigger=release
volume=-4
amp_random=6
rt_decay=7
ampeg_release=0.600

<region>
sample=release\eb4_rel_rr1.wav
hirand=0.200
pitch_keycenter=63

<region>
sample=release\eb4_rel_rr2.wav
lorand=0.200
hirand=0.400
pitch_keycenter=63

<region>
sample=release\eb4_rel_rr3.wav
lorand=0.400
hirand=0.600
pitch_keycenter=63

<region>
sample=release\eb4_rel_rr4.wav
lorand=0.600
hirand=0.800
pitch_keycenter=63

<region>
sample=release\eb4_rel_rr5.wav
lorand=0.800
pitch_keycenter=63

//========================
<group>
lokey=65
hikey=67
trigger=release
volume=-4
amp_random=6
rt_decay=7
ampeg_release=0.600

<region>
sample=release\gb4_rel_rr1.wav
hirand=0.200
pitch_keycenter=66

<region>
sample=release\gb4_rel_rr2.wav
lorand=0.200
hirand=0.400
pitch_keycenter=66

<region>
sample=release\gb4_rel_rr3.wav
lorand=0.400
hirand=0.600
pitch_keycenter=66

<region>
sample=release\gb4_rel_rr4.wav
lorand=0.600
hirand=0.800
pitch_keycenter=66

<region>
sample=release\gb4_rel_rr5.wav
lorand=0.800
pitch_keycenter=66

//========================
<group>
lokey=68
hikey=70
trigger=release
volume=-4
amp_random=6
rt_decay=7
ampeg_release=0.600

<region>
sample=release\a4_rel_rr1.wav
hirand=0.200
pitch_keycenter=69

<region>
sample=release\a4_rel_rr2.wav
lorand=0.200
hirand=0.400
pitch_keycenter=69

<region>
sample=release\a4_rel_rr3.wav
lorand=0.400
hirand=0.600
pitch_keycenter=69

<region>
sample=release\a4_rel_rr4.wav
lorand=0.600
hirand=0.800
pitch_keycenter=69

<region>
sample=release\a4_rel_rr5.wav
lorand=0.800
pitch_keycenter=69

//========================
<group>
lokey=71
hikey=73
trigger=release
volume=-4
amp_random=6
rt_decay=7
ampeg_release=0.600

<region>
sample=release\c5_rel_rr1.wav
hirand=0.200
pitch_keycenter=72

<region>
sample=release\c5_rel_rr2.wav
lorand=0.200
hirand=0.400
pitch_keycenter=72

<region>
sample=release\c5_rel_rr3.wav
lorand=0.400
hirand=0.600
pitch_keycenter=72

<region>
sample=release\c5_rel_rr4.wav
lorand=0.600
hirand=0.800
pitch_keycenter=72

<region>
sample=release\c5_rel_rr5.wav
lorand=0.800
pitch_keycenter=72

//========================
<group>
lokey=74
hikey=79
trigger=release
volume=-4
amp_random=6
rt_decay=7
ampeg_release=0.600

<region>
sample=release\eb5_rel_rr1.wav
hirand=0.200
pitch_keycenter=75

<region>
sample=release\eb5_rel_rr2.wav
lorand=0.200
hirand=0.400
pitch_keycenter=75

<region>
sample=release\eb5_rel_rr3.wav
lorand=0.400
hirand=0.600
pitch_keycenter=75

<region>
sample=release\eb5_rel_rr4.wav
lorand=0.600
hirand=0.800
pitch_keycenter=75

<region>
sample=release\eb5_rel_rr5.wav
lorand=0.800
pitch_keycenter=75

//========================
<group>
lokey=81
hikey=81
ampeg_release=0.300

<region>
sample=scrape\scrape_1_rr1.wav
hirand=0.250
pitch_keycenter=81

<region>
sample=scrape\scrape_1_rr1.wav
hirand=0.250
pitch_keycenter=81

<region>
sample=scrape\scrape_1_rr2.wav
lorand=0.250
hirand=0.500
pitch_keycenter=81

<region>
sample=scrape\scrape_1_rr2.wav
lorand=0.250
hirand=0.500
pitch_keycenter=81

<region>
sample=scrape\scrape_1_rr3.wav
lorand=0.500
hirand=0.750
pitch_keycenter=81

<region>
sample=scrape\scrape_1_rr3.wav
lorand=0.500
hirand=0.750
pitch_keycenter=81

<region>
sample=scrape\scrape_1_rr4.wav
lorand=0.750
pitch_keycenter=81

<region>
sample=scrape\scrape_1_rr4.wav
lorand=0.750
pitch_keycenter=81

//========================
<group>
lokey=82
hikey=82
ampeg_release=0.300

<region>
sample=scrape\scrape_2_rr1.wav
hirand=0.250
pitch_keycenter=82

<region>
sample=scrape\scrape_2_rr1.wav
hirand=0.250
pitch_keycenter=82

<region>
sample=scrape\scrape_2_rr2.wav
lorand=0.250
hirand=0.500
pitch_keycenter=82

<region>
sample=scrape\scrape_2_rr2.wav
lorand=0.250
hirand=0.500
pitch_keycenter=82

<region>
sample=scrape\scrape_2_rr3.wav
lorand=0.500
hirand=0.750
pitch_keycenter=82

<region>
sample=scrape\scrape_2_rr3.wav
lorand=0.500
hirand=0.750
pitch_keycenter=82

<region>
sample=scrape\scrape_2_rr4.wav
lorand=0.750
pitch_keycenter=82

<region>
sample=scrape\scrape_2_rr4.wav
lorand=0.750
pitch_keycenter=82

//========================
<group>
lokey=83
hikey=83
ampeg_release=0.300

<region>
sample=scrape\scrape_3_rr1.wav
hirand=0.250
pitch_keycenter=83

<region>
sample=scrape\scrape_3_rr2.wav
lorand=0.250
hirand=0.500
pitch_keycenter=83

<region>
sample=scrape\scrape_3_rr3.wav
lorand=0.500
hirand=0.750
pitch_keycenter=83

<region>
sample=scrape\scrape_3_rr4.wav
lorand=0.750
pitch_keycenter=83

//========================
<group>
lokey=84
hikey=84
ampeg_release=0.300

<region>
sample=scrape\scrape_4_rr1.wav
hirand=0.250
pitch_keycenter=84

<region>
sample=scrape\scrape_4_rr2.wav
lorand=0.250
hirand=0.500
pitch_keycenter=84

<region>
sample=scrape\scrape_4_rr3.wav
lorand=0.500
hirand=0.750
pitch_keycenter=84

<region>
sample=scrape\scrape_4_rr4.wav
lorand=0.750
pitch_keycenter=84

//========================
<group>
lokey=33
hikey=38
ampeg_release=0.300

<region>
sample=staccato\db2_staccato_rr1.wav
hirand=0.200
pitch_keycenter=37

<region>
sample=staccato\db2_staccato_rr2.wav
lorand=0.200
hirand=0.400
pitch_keycenter=37

<region>
sample=staccato\db2_staccato_rr3.wav
lorand=0.400
hirand=0.600
pitch_keycenter=37

<region>
sample=staccato\db2_staccato_rr4.wav
lorand=0.600
hirand=0.800
pitch_keycenter=37

<region>
sample=staccato\db2_staccato_rr5.wav
lorand=0.800
pitch_keycenter=37

//========================
<group>
lokey=39
hikey=40
ampeg_release=0.300

<region>
sample=staccato\e2_staccato_rr1.wav
hirand=0.200
pitch_keycenter=40

<region>
sample=staccato\e2_staccato_rr2.wav
lorand=0.200
hirand=0.400
pitch_keycenter=40

<region>
sample=staccato\e2_staccato_rr3.wav
lorand=0.400
hirand=0.600
pitch_keycenter=40

<region>
sample=staccato\e2_staccato_rr4.wav
lorand=0.600
hirand=0.800
pitch_keycenter=40

<region>
sample=staccato\e2_staccato_rr5.wav
lorand=0.800
pitch_keycenter=40

//========================
<group>
lokey=41
hikey=43
ampeg_release=0.300

<region>
sample=staccato\gb2_staccato_rr1.wav
hirand=0.200
pitch_keycenter=42

<region>
sample=staccato\gb2_staccato_rr2.wav
lorand=0.200
hirand=0.400
pitch_keycenter=42

<region>
sample=staccato\gb2_staccato_rr3.wav
lorand=0.400
hirand=0.600
pitch_keycenter=42

<region>
sample=staccato\gb2_staccato_rr4.wav
lorand=0.600
hirand=0.800
pitch_keycenter=42

<region>
sample=staccato\gb2_staccato_rr5.wav
lorand=0.800
pitch_keycenter=42

//========================
<group>
lokey=44
hikey=46
ampeg_release=0.300

<region>
sample=staccato\a2_staccato_rr1.wav
hirand=0.200
pitch_keycenter=45

<region>
sample=staccato\a2_staccato_rr2.wav
lorand=0.200
hirand=0.400
pitch_keycenter=45

<region>
sample=staccato\a2_staccato_rr3.wav
lorand=0.400
hirand=0.600
pitch_keycenter=45

<region>
sample=staccato\a2_staccato_rr4.wav
lorand=0.600
hirand=0.800
pitch_keycenter=45

<region>
sample=staccato\a2_staccato_rr5.wav
lorand=0.800
pitch_keycenter=45

//========================
<group>
lokey=47
hikey=49
ampeg_release=0.300

<region>
sample=staccato\c3_staccato_rr1.wav
hirand=0.200
pitch_keycenter=48

<region>
sample=staccato\c3_staccato_rr2.wav
lorand=0.200
hirand=0.400
pitch_keycenter=48

<region>
sample=staccato\c3_staccato_rr3.wav
lorand=0.400
hirand=0.600
pitch_keycenter=48

<region>
sample=staccato\c3_staccato_rr4.wav
lorand=0.600
hirand=0.800
pitch_keycenter=48

<region>
sample=staccato\c3_staccato_rr5.wav
lorand=0.800
pitch_keycenter=47

//========================
<group>
lokey=50
hikey=52
ampeg_release=0.300

<region>
sample=staccato\eb3_staccato_rr1.wav
hirand=0.200
pitch_keycenter=51

<region>
sample=staccato\eb3_staccato_rr2.wav
lorand=0.200
hirand=0.400
pitch_keycenter=51

<region>
sample=staccato\eb3_staccato_rr3.wav
lorand=0.400
hirand=0.600
pitch_keycenter=51

<region>
sample=staccato\eb3_staccato_rr4.wav
lorand=0.600
hirand=0.800
pitch_keycenter=51

<region>
sample=staccato\eb3_staccato_rr5.wav
lorand=0.800
pitch_keycenter=51

//========================
<group>
lokey=53
hikey=55
ampeg_release=0.300

<region>
sample=staccato\gb3_staccato_rr1.wav
hirand=0.200
pitch_keycenter=54

<region>
sample=staccato\gb3_staccato_rr2.wav
lorand=0.200
hirand=0.400
pitch_keycenter=54

<region>
sample=staccato\gb3_staccato_rr3.wav
lorand=0.400
hirand=0.600
pitch_keycenter=54

<region>
sample=staccato\gb3_staccato_rr4.wav
lorand=0.600
hirand=0.800
pitch_keycenter=54

<region>
sample=staccato\gb3_staccato_rr5.wav
lorand=0.800
pitch_keycenter=54

//========================
<group>
lokey=56
hikey=58
ampeg_release=0.300

<region>
sample=staccato\a3_staccato_rr1.wav
hirand=0.200
pitch_keycenter=57

<region>
sample=staccato\a3_staccato_rr2.wav
lorand=0.200
hirand=0.400
pitch_keycenter=57

<region>
sample=staccato\a3_staccato_rr3.wav
lorand=0.400
hirand=0.600
pitch_keycenter=57

<region>
sample=staccato\a3_staccato_rr4.wav
lorand=0.600
hirand=0.800
pitch_keycenter=57

<region>
sample=staccato\a3_staccato_rr5.wav
lorand=0.800
pitch_keycenter=57

//========================
<group>
lokey=59
hikey=61
ampeg_release=0.300

<region>
sample=staccato\c4_staccato_rr1.wav
hirand=0.200

<region>
sample=staccato\c4_staccato_rr2.wav
lorand=0.200
hirand=0.400

<region>
sample=staccato\c4_staccato_rr3.wav
lorand=0.400
hirand=0.600

<region>
sample=staccato\c4_staccato_rr4.wav
lorand=0.600
hirand=0.800

<region>
sample=staccato\c4_staccato_rr5.wav
lorand=0.800

//========================
<group>
lokey=62
hikey=64
ampeg_release=0.300

<region>
sample=staccato\eb4_staccato_rr1.wav
hirand=0.200
pitch_keycenter=63

<region>
sample=staccato\eb4_staccato_rr2.wav
lorand=0.200
hirand=0.400
pitch_keycenter=63

<region>
sample=staccato\eb4_staccato_rr3.wav
lorand=0.400
hirand=0.600
pitch_keycenter=63

<region>
sample=staccato\eb4_staccato_rr4.wav
lorand=0.600
hirand=0.800
pitch_keycenter=63

<region>
sample=staccato\eb4_staccato_rr5.wav
lorand=0.800
pitch_keycenter=63

//========================
<group>
lokey=65
hikey=67
ampeg_release=0.300

<region>
sample=staccato\gb4_staccato_rr1.wav
hirand=0.200
pitch_keycenter=66

<region>
sample=staccato\gb4_staccato_rr2.wav
lorand=0.200
hirand=0.400
pitch_keycenter=66

<region>
sample=staccato\gb4_staccato_rr3.wav
lorand=0.400
hirand=0.600
pitch_keycenter=66

<region>
sample=staccato\gb4_staccato_rr4.wav
lorand=0.600
hirand=0.800
pitch_keycenter=66

<region>
sample=staccato\gb4_staccato_rr5.wav
lorand=0.800
pitch_keycenter=66

//========================
<group>
lokey=68
hikey=70
ampeg_release=0.300

<region>
sample=staccato\a4_staccato_rr1.wav
hirand=0.200
pitch_keycenter=69

<region>
sample=staccato\a4_staccato_rr2.wav
lorand=0.200
hirand=0.400
pitch_keycenter=69

<region>
sample=staccato\a4_staccato_rr3.wav
lorand=0.400
hirand=0.600
pitch_keycenter=69

<region>
sample=staccato\a4_staccato_rr4.wav
lorand=0.600
hirand=0.800
pitch_keycenter=69

<region>
sample=staccato\a4_staccato_rr5.wav
lorand=0.800
pitch_keycenter=69

//========================
<group>
lokey=71
hikey=73
ampeg_release=0.300

<region>
sample=staccato\c5_staccato_rr1.wav
hirand=0.200
pitch_keycenter=72

<region>
sample=staccato\c5_staccato_rr2.wav
lorand=0.200
hirand=0.400
pitch_keycenter=72

<region>
sample=staccato\c5_staccato_rr3.wav
lorand=0.400
hirand=0.600
pitch_keycenter=72

<region>
sample=staccato\c5_staccato_rr4.wav
lorand=0.600
hirand=0.800
pitch_keycenter=72

<region>
sample=staccato\c5_staccato_rr5.wav
lorand=0.800
pitch_keycenter=72

//========================
<group>
lokey=74
hikey=79
ampeg_release=0.300

<region>
sample=staccato\eb5_staccato_rr1.wav
hirand=0.200
pitch_keycenter=75

<region>
sample=staccato\eb5_staccato_rr2.wav
lorand=0.200
hirand=0.400
pitch_keycenter=75

<region>
sample=staccato\eb5_staccato_rr3.wav
lorand=0.400
hirand=0.600
pitch_keycenter=75

<region>
sample=staccato\eb5_staccato_rr4.wav
lorand=0.600
hirand=0.800
pitch_keycenter=75

<region>
sample=staccato\eb5_staccato_rr5.wav
lorand=0.800
pitch_keycenter=75

//========================
<group>
lokey=33
hikey=38
ampeg_release=0.300

<region>
sample=sustain\db2_pp_rr1.wav
hivel=60
hirand=0.250
pitch_keycenter=37
amp_velcurve_60=1

<region>
sample=sustain\db2_p_rr1.wav
lovel=61
hivel=95
hirand=0.250
pitch_keycenter=37
amp_velcurve_95=1

<region>
sample=sustain\db2_f_rr1.wav
lovel=96
hivel=120
hirand=0.250
pitch_keycenter=37
amp_velcurve_120=1

<region>
sample=sustain\db2_ff_rr1.wav
lovel=121
hirand=0.250
pitch_keycenter=37

<region>
sample=sustain\db2_pp_rr2.wav
hivel=60
lorand=0.250
hirand=0.500
pitch_keycenter=37
amp_velcurve_60=1

<region>
sample=sustain\db2_p_rr2.wav
lovel=61
hivel=95
lorand=0.250
hirand=0.500
pitch_keycenter=37
amp_velcurve_95=1

<region>
sample=sustain\db2_f_rr2.wav
lovel=96
hivel=120
lorand=0.250
hirand=0.500
pitch_keycenter=37
amp_velcurve_120=1

<region>
sample=sustain\db2_ff_rr2.wav
lovel=121
lorand=0.250
hirand=0.500
pitch_keycenter=37

<region>
sample=sustain\db2_pp_rr3.wav
hivel=60
lorand=0.500
hirand=0.750
pitch_keycenter=37
amp_velcurve_60=1

<region>
sample=sustain\db2_p_rr3.wav
lovel=61
hivel=95
lorand=0.500
hirand=0.750
pitch_keycenter=37
amp_velcurve_95=1

<region>
sample=sustain\db2_f_rr3.wav
lovel=96
hivel=120
lorand=0.500
hirand=0.750
pitch_keycenter=37
amp_velcurve_120=1

<region>
sample=sustain\db2_ff_rr3.wav
lovel=121
lorand=0.500
hirand=0.750
pitch_keycenter=37

<region>
sample=sustain\db2_pp_rr4.wav
hivel=60
lorand=0.750
pitch_keycenter=37
amp_velcurve_60=1

<region>
sample=sustain\db2_p_rr4.wav
lovel=61
hivel=95
lorand=0.750
pitch_keycenter=37
amp_velcurve_95=1

<region>
sample=sustain\db2_f_rr4.wav
lovel=96
hivel=120
lorand=0.750
pitch_keycenter=37
amp_velcurve_120=1

<region>
sample=sustain\db2_ff_rr4.wav
lovel=121
lorand=0.750
pitch_keycenter=37

//========================
<group>
lokey=39
hikey=40
ampeg_release=0.300

<region>
sample=sustain\e2_pp_rr1.wav
hivel=60
hirand=0.250
pitch_keycenter=40
amp_velcurve_60=1

<region>
sample=sustain\e2_p_rr1.wav
lovel=61
hivel=95
hirand=0.250
pitch_keycenter=40
amp_velcurve_95=1

<region>
sample=sustain\e2_f_rr1.wav
lovel=96
hivel=120
hirand=0.250
pitch_keycenter=40
amp_velcurve_120=1

<region>
sample=sustain\e2_ff_rr1.wav
lovel=121
hirand=0.250
pitch_keycenter=40

<region>
sample=sustain\e2_pp_rr2.wav
hivel=60
lorand=0.250
hirand=0.500
pitch_keycenter=40
amp_velcurve_60=1

<region>
sample=sustain\e2_p_rr2.wav
lovel=61
hivel=95
lorand=0.250
hirand=0.500
pitch_keycenter=40
amp_velcurve_95=1

<region>
sample=sustain\e2_f_rr2.wav
lovel=96
hivel=120
lorand=0.250
hirand=0.500
pitch_keycenter=40
amp_velcurve_120=1

<region>
sample=sustain\e2_ff_rr2.wav
lovel=121
lorand=0.250
hirand=0.500
pitch_keycenter=40

<region>
sample=sustain\e2_pp_rr3.wav
hivel=60
lorand=0.500
hirand=0.750
pitch_keycenter=40
amp_velcurve_60=1

<region>
sample=sustain\e2_p_rr3.wav
lovel=61
hivel=95
lorand=0.500
hirand=0.750
pitch_keycenter=40
amp_velcurve_95=1

<region>
sample=sustain\e2_f_rr3.wav
lovel=96
hivel=120
lorand=0.500
hirand=0.750
pitch_keycenter=40
amp_velcurve_120=1

<region>
sample=sustain\e2_ff_rr3.wav
lovel=121
lorand=0.500
hirand=0.750
pitch_keycenter=40

<region>
sample=sustain\e2_pp_rr4.wav
hivel=60
lorand=0.750
pitch_keycenter=40
amp_velcurve_60=1

<region>
sample=sustain\e2_p_rr4.wav
lovel=61
hivel=95
lorand=0.750
pitch_keycenter=40
amp_velcurve_95=1

<region>
sample=sustain\e2_f_rr4.wav
lovel=96
hivel=120
lorand=0.750
pitch_keycenter=40
amp_velcurve_120=1

<region>
sample=sustain\e2_ff_rr4.wav
lovel=121
lorand=0.750
pitch_keycenter=40

//========================
<group>
lokey=41
hikey=43
ampeg_release=0.300

<region>
sample=sustain\gb2_pp_rr1.wav
hivel=60
hirand=0.250
pitch_keycenter=42
amp_velcurve_60=1

<region>
sample=sustain\gb2_p_rr1.wav
lovel=61
hivel=95
hirand=0.250
pitch_keycenter=42
amp_velcurve_95=1

<region>
sample=sustain\gb2_f_rr1.wav
lovel=96
hivel=120
hirand=0.250
pitch_keycenter=42
amp_velcurve_120=1

<region>
sample=sustain\gb2_ff_rr1.wav
lovel=121
hirand=0.250
pitch_keycenter=42

<region>
sample=sustain\gb2_pp_rr2.wav
hivel=60
lorand=0.250
hirand=0.500
pitch_keycenter=42
amp_velcurve_60=1

<region>
sample=sustain\gb2_p_rr2.wav
lovel=61
hivel=95
lorand=0.250
hirand=0.500
pitch_keycenter=42
amp_velcurve_95=1

<region>
sample=sustain\gb2_f_rr2.wav
lovel=96
hivel=120
lorand=0.250
hirand=0.500
pitch_keycenter=42
amp_velcurve_120=1

<region>
sample=sustain\gb2_ff_rr2.wav
lovel=121
lorand=0.250
hirand=0.500
pitch_keycenter=42

<region>
sample=sustain\gb2_pp_rr3.wav
hivel=60
lorand=0.500
hirand=0.750
pitch_keycenter=42
amp_velcurve_60=1

<region>
sample=sustain\gb2_p_rr3.wav
lovel=61
hivel=95
lorand=0.500
hirand=0.750
pitch_keycenter=42
amp_velcurve_95=1

<region>
sample=sustain\gb2_f_rr3.wav
lovel=96
hivel=120
lorand=0.500
hirand=0.750
pitch_keycenter=42
amp_velcurve_120=1

<region>
sample=sustain\gb2_ff_rr3.wav
lovel=121
lorand=0.500
hirand=0.750
pitch_keycenter=42

<region>
sample=sustain\gb2_pp_rr4.wav
hivel=60
lorand=0.750
pitch_keycenter=42
amp_velcurve_60=1

<region>
sample=sustain\gb2_p_rr4.wav
lovel=61
hivel=95
lorand=0.750
pitch_keycenter=42
amp_velcurve_95=1

<region>
sample=sustain\gb2_f_rr4.wav
lovel=96
hivel=120
lorand=0.750
pitch_keycenter=42
amp_velcurve_120=1

<region>
sample=sustain\gb2_ff_rr4.wav
lovel=121
lorand=0.750
pitch_keycenter=42

//========================
<group>
lokey=44
hikey=46
ampeg_release=0.300

<region>
sample=sustain\a2_pp_rr1.wav
hivel=60
hirand=0.250
pitch_keycenter=45
amp_velcurve_60=1

<region>
sample=sustain\a2_p_rr1.wav
lovel=61
hivel=95
hirand=0.250
pitch_keycenter=45
amp_velcurve_95=1

<region>
sample=sustain\a2_f_rr1.wav
lovel=96
hivel=120
hirand=0.250
pitch_keycenter=45
amp_velcurve_120=1

<region>
sample=sustain\a2_ff_rr1.wav
lovel=121
hirand=0.250
pitch_keycenter=45

<region>
sample=sustain\a2_pp_rr2.wav
hivel=60
lorand=0.250
hirand=0.500
pitch_keycenter=45
amp_velcurve_60=1

<region>
sample=sustain\a2_p_rr2.wav
lovel=61
hivel=95
lorand=0.250
hirand=0.500
pitch_keycenter=45
amp_velcurve_95=1

<region>
sample=sustain\a2_f_rr2.wav
lovel=96
hivel=120
lorand=0.250
hirand=0.500
pitch_keycenter=45
amp_velcurve_120=1

<region>
sample=sustain\a2_ff_rr2.wav
lovel=121
lorand=0.250
hirand=0.500
pitch_keycenter=45

<region>
sample=sustain\a2_pp_rr3.wav
hivel=60
lorand=0.500
hirand=0.750
pitch_keycenter=45
amp_velcurve_60=1

<region>
sample=sustain\a2_p_rr3.wav
lovel=61
hivel=95
lorand=0.500
hirand=0.750
pitch_keycenter=45
amp_velcurve_95=1

<region>
sample=sustain\a2_f_rr3.wav
lovel=96
hivel=120
lorand=0.500
hirand=0.750
pitch_keycenter=45
amp_velcurve_120=1

<region>
sample=sustain\a2_ff_rr3.wav
lovel=121
lorand=0.500
hirand=0.750
pitch_keycenter=45

<region>
sample=sustain\a2_pp_rr4.wav
hivel=60
lorand=0.750
pitch_keycenter=45
amp_velcurve_60=1

<region>
sample=sustain\a2_p_rr4.wav
lovel=61
hivel=95
lorand=0.750
pitch_keycenter=45
amp_velcurve_95=1

<region>
sample=sustain\a2_f_rr4.wav
lovel=96
hivel=120
lorand=0.750
pitch_keycenter=45
amp_velcurve_120=1

<region>
sample=sustain\a2_ff_rr4.wav
lovel=121
lorand=0.750
pitch_keycenter=45

//========================
<group>
lokey=47
hikey=49
ampeg_release=0.300

<region>
sample=sustain\c3_pp_rr1.wav
hivel=60
hirand=0.250
pitch_keycenter=48
amp_velcurve_60=1

<region>
sample=sustain\c3_p_rr1.wav
lovel=61
hivel=95
hirand=0.250
pitch_keycenter=48
amp_velcurve_95=1

<region>
sample=sustain\c3_f_rr1.wav
lovel=96
hivel=120
hirand=0.250
pitch_keycenter=48
amp_velcurve_120=1

<region>
sample=sustain\c3_ff_rr1.wav
lovel=121
hirand=0.250
pitch_keycenter=48

<region>
sample=sustain\c3_pp_rr2.wav
hivel=60
lorand=0.250
hirand=0.500
pitch_keycenter=48
amp_velcurve_60=1

<region>
sample=sustain\c3_p_rr2.wav
lovel=61
hivel=95
lorand=0.250
hirand=0.500
pitch_keycenter=48
amp_velcurve_95=1

<region>
sample=sustain\c3_f_rr2.wav
lovel=96
hivel=120
lorand=0.250
hirand=0.500
pitch_keycenter=48
amp_velcurve_120=1

<region>
sample=sustain\c3_ff_rr2.wav
lovel=121
lorand=0.250
hirand=0.500
pitch_keycenter=48

<region>
sample=sustain\c3_pp_rr3.wav
hivel=60
lorand=0.500
hirand=0.750
pitch_keycenter=48
amp_velcurve_60=1

<region>
sample=sustain\c3_p_rr3.wav
lovel=61
hivel=95
lorand=0.500
hirand=0.750
pitch_keycenter=48
amp_velcurve_95=1

<region>
sample=sustain\c3_f_rr3.wav
lovel=96
hivel=120
lorand=0.500
hirand=0.750
pitch_keycenter=48
amp_velcurve_120=1

<region>
sample=sustain\c3_ff_rr3.wav
lovel=121
lorand=0.500
hirand=0.750
pitch_keycenter=48

<region>
sample=sustain\c3_pp_rr4.wav
hivel=60
lorand=0.750
pitch_keycenter=48
amp_velcurve_60=1

<region>
sample=sustain\c3_p_rr4.wav
lovel=61
hivel=95
lorand=0.750
pitch_keycenter=48
amp_velcurve_95=1

<region>
sample=sustain\c3_f_rr4.wav
lovel=96
hivel=120
lorand=0.750
pitch_keycenter=48
amp_velcurve_120=1

<region>
sample=sustain\c3_ff_rr4.wav
lovel=121
lorand=0.750
pitch_keycenter=48

//========================
<group>
lokey=50
hikey=52
ampeg_release=0.300

<region>
sample=sustain\eb3_pp_rr1.wav
hivel=60
hirand=0.250
pitch_keycenter=51
amp_velcurve_60=1

<region>
sample=sustain\eb3_p_rr1.wav
lovel=61
hivel=95
hirand=0.250
pitch_keycenter=51
amp_velcurve_95=1

<region>
sample=sustain\eb3_f_rr1.wav
lovel=96
hivel=120
hirand=0.250
pitch_keycenter=51
amp_velcurve_120=1

<region>
sample=sustain\eb3_ff_rr1.wav
lovel=121
hirand=0.250
pitch_keycenter=51

<region>
sample=sustain\eb3_pp_rr2.wav
hivel=60
lorand=0.250
hirand=0.500
pitch_keycenter=51
amp_velcurve_60=1

<region>
sample=sustain\eb3_p_rr2.wav
lovel=61
hivel=95
lorand=0.250
hirand=0.500
pitch_keycenter=51
amp_velcurve_95=1

<region>
sample=sustain\eb3_f_rr2.wav
lovel=96
hivel=120
lorand=0.250
hirand=0.500
pitch_keycenter=51
amp_velcurve_120=1

<region>
sample=sustain\eb3_ff_rr2.wav
lovel=121
lorand=0.250
hirand=0.500
pitch_keycenter=51

<region>
sample=sustain\eb3_pp_rr3.wav
hivel=60
lorand=0.500
hirand=0.750
pitch_keycenter=51
amp_velcurve_60=1

<region>
sample=sustain\eb3_p_rr3.wav
lovel=61
hivel=95
lorand=0.500
hirand=0.750
pitch_keycenter=51
amp_velcurve_95=1

<region>
sample=sustain\eb3_f_rr3.wav
lovel=96
hivel=120
lorand=0.500
hirand=0.750
pitch_keycenter=51
amp_velcurve_120=1

<region>
sample=sustain\eb3_ff_rr3.wav
lovel=121
lorand=0.500
hirand=0.750
pitch_keycenter=51

<region>
sample=sustain\eb3_pp_rr4.wav
hivel=60
lorand=0.750
pitch_keycenter=51
amp_velcurve_60=1

<region>
sample=sustain\eb3_p_rr4.wav
lovel=61
hivel=95
lorand=0.750
pitch_keycenter=51
amp_velcurve_95=1

<region>
sample=sustain\eb3_f_rr4.wav
lovel=96
hivel=120
lorand=0.750
pitch_keycenter=51
amp_velcurve_120=1

<region>
sample=sustain\eb3_ff_rr4.wav
lovel=121
lorand=0.750
pitch_keycenter=51

//========================
<group>
lokey=53
hikey=55
ampeg_release=0.300

<region>
sample=sustain\gb3_pp_rr1.wav
hivel=60
hirand=0.250
pitch_keycenter=54
amp_velcurve_60=1

<region>
sample=sustain\gb3_p_rr1.wav
lovel=61
hivel=95
hirand=0.250
pitch_keycenter=54
amp_velcurve_95=1

<region>
sample=sustain\gb3_f_rr1.wav
lovel=96
hivel=120
hirand=0.250
pitch_keycenter=54
amp_velcurve_120=1

<region>
sample=sustain\gb3_ff_rr1.wav
lovel=121
hirand=0.250
pitch_keycenter=54

<region>
sample=sustain\gb3_pp_rr2.wav
hivel=60
lorand=0.250
hirand=0.500
pitch_keycenter=54
amp_velcurve_60=1

<region>
sample=sustain\gb3_p_rr2.wav
lovel=61
hivel=95
lorand=0.250
hirand=0.500
pitch_keycenter=54
amp_velcurve_95=1

<region>
sample=sustain\gb3_f_rr2.wav
lovel=96
hivel=120
lorand=0.250
hirand=0.500
pitch_keycenter=54
amp_velcurve_120=1

<region>
sample=sustain\gb3_ff_rr2.wav
lovel=121
lorand=0.250
hirand=0.500
pitch_keycenter=54

<region>
sample=sustain\gb3_pp_rr3.wav
hivel=60
lorand=0.500
hirand=0.750
pitch_keycenter=54
amp_velcurve_60=1

<region>
sample=sustain\gb3_p_rr3.wav
lovel=61
hivel=95
lorand=0.500
hirand=0.750
pitch_keycenter=54
amp_velcurve_95=1

<region>
sample=sustain\gb3_f_rr3.wav
lovel=96
hivel=120
lorand=0.500
hirand=0.750
pitch_keycenter=54
amp_velcurve_120=1

<region>
sample=sustain\gb3_ff_rr3.wav
lovel=121
lorand=0.500
hirand=0.750
pitch_keycenter=54

<region>
sample=sustain\gb3_pp_rr4.wav
hivel=60
lorand=0.750
pitch_keycenter=54
amp_velcurve_60=1

<region>
sample=sustain\gb3_p_rr4.wav
lovel=61
hivel=95
lorand=0.750
pitch_keycenter=54
amp_velcurve_95=1

<region>
sample=sustain\gb3_f_rr4.wav
lovel=96
hivel=120
lorand=0.750
pitch_keycenter=54
amp_velcurve_120=1

<region>
sample=sustain\gb3_ff_rr4.wav
lovel=121
lorand=0.750
pitch_keycenter=54

//========================
<group>
lokey=56
hikey=58
ampeg_release=0.300

<region>
sample=sustain\a3_pp_rr1.wav
hivel=60
hirand=0.250
pitch_keycenter=57
amp_velcurve_60=1

<region>
sample=sustain\a3_p_rr1.wav
lovel=61
hivel=95
hirand=0.250
pitch_keycenter=57
amp_velcurve_95=1

<region>
sample=sustain\a3_f_rr1.wav
lovel=96
hivel=120
hirand=0.250
pitch_keycenter=57
amp_velcurve_120=1

<region>
sample=sustain\a3_ff_rr1.wav
lovel=121
hirand=0.250
pitch_keycenter=57

<region>
sample=sustain\a3_pp_rr2.wav
hivel=60
lorand=0.250
hirand=0.500
pitch_keycenter=57
amp_velcurve_60=1

<region>
sample=sustain\a3_p_rr2.wav
lovel=61
hivel=95
lorand=0.250
hirand=0.500
pitch_keycenter=57
amp_velcurve_95=1

<region>
sample=sustain\a3_f_rr2.wav
lovel=96
hivel=120
lorand=0.250
hirand=0.500
pitch_keycenter=57
amp_velcurve_120=1

<region>
sample=sustain\a3_ff_rr2.wav
lovel=121
lorand=0.250
hirand=0.500
pitch_keycenter=57

<region>
sample=sustain\a3_pp_rr3.wav
hivel=60
lorand=0.500
hirand=0.750
pitch_keycenter=57
amp_velcurve_60=1

<region>
sample=sustain\a3_p_rr3.wav
lovel=61
hivel=95
lorand=0.500
hirand=0.750
pitch_keycenter=57
amp_velcurve_95=1

<region>
sample=sustain\a3_f_rr3.wav
lovel=96
hivel=120
lorand=0.500
hirand=0.750
pitch_keycenter=57
amp_velcurve_120=1

<region>
sample=sustain\a3_ff_rr3.wav
lovel=121
lorand=0.500
hirand=0.750
pitch_keycenter=57

<region>
sample=sustain\a3_pp_rr4.wav
hivel=60
lorand=0.750
pitch_keycenter=57
amp_velcurve_60=1

<region>
sample=sustain\a3_p_rr4.wav
lovel=61
hivel=95
lorand=0.750
pitch_keycenter=57
amp_velcurve_95=1

<region>
sample=sustain\a3_f_rr4.wav
lovel=96
hivel=120
lorand=0.750
pitch_keycenter=57
amp_velcurve_120=1

<region>
sample=sustain\a3_ff_rr4.wav
lovel=121
lorand=0.750
pitch_keycenter=57

//========================
<group>
lokey=59
hikey=61
ampeg_release=0.300

<region>
sample=sustain\c4_pp_rr1.wav
hivel=60
hirand=0.250
amp_velcurve_60=1

<region>
sample=sustain\c4_p_rr1.wav
lovel=61
hivel=95
hirand=0.250
amp_velcurve_95=1

<region>
sample=sustain\c4_f_rr1.wav
lovel=96
hivel=120
hirand=0.250
amp_velcurve_120=1

<region>
sample=sustain\c4_ff_rr1.wav
lovel=121
hirand=0.250

<region>
sample=sustain\c4_pp_rr2.wav
hivel=60
lorand=0.250
hirand=0.500
amp_velcurve_60=1

<region>
sample=sustain\c4_p_rr2.wav
lovel=61
hivel=95
lorand=0.250
hirand=0.500
amp_velcurve_95=1

<region>
sample=sustain\c4_f_rr2.wav
lovel=96
hivel=120
lorand=0.250
hirand=0.500
amp_velcurve_120=1

<region>
sample=sustain\c4_ff_rr2.wav
lovel=121
lorand=0.250
hirand=0.500

<region>
sample=sustain\c4_pp_rr3.wav
hivel=60
lorand=0.500
hirand=0.750
amp_velcurve_60=1

<region>
sample=sustain\c4_p_rr3.wav
lovel=61
hivel=95
lorand=0.500
hirand=0.750
amp_velcurve_95=1

<region>
sample=sustain\c4_f_rr3.wav
lovel=96
hivel=120
lorand=0.500
hirand=0.750
amp_velcurve_120=1

<region>
sample=sustain\c4_ff_rr3.wav
lovel=121
lorand=0.500
hirand=0.750

<region>
sample=sustain\c4_pp_rr4.wav
hivel=60
lorand=0.750
amp_velcurve_60=1

<region>
sample=sustain\c4_p_rr4.wav
lovel=61
hivel=95
lorand=0.750
amp_velcurve_95=1

<region>
sample=sustain\c4_f_rr4.wav
lovel=96
hivel=120
lorand=0.750
amp_velcurve_120=1

<region>
sample=sustain\c4_ff_rr4.wav
lovel=121
lorand=0.750

//========================
<group>
lokey=62
hikey=64
ampeg_release=0.300

<region>
sample=sustain\eb4_pp_rr1.wav
hivel=60
hirand=0.250
pitch_keycenter=63
amp_velcurve_60=1

<region>
sample=sustain\eb4_p_rr1.wav
lovel=61
hivel=95
hirand=0.250
pitch_keycenter=63
amp_velcurve_95=1

<region>
sample=sustain\eb4_f_rr1.wav
lovel=96
hivel=120
hirand=0.250
pitch_keycenter=63
amp_velcurve_120=1

<region>
sample=sustain\eb4_ff_rr1.wav
lovel=121
hirand=0.250
pitch_keycenter=63

<region>
sample=sustain\eb4_pp_rr2.wav
hivel=60
lorand=0.250
hirand=0.500
pitch_keycenter=63
amp_velcurve_60=1

<region>
sample=sustain\eb4_p_rr2.wav
lovel=61
hivel=95
lorand=0.250
hirand=0.500
pitch_keycenter=63
amp_velcurve_95=1

<region>
sample=sustain\eb4_f_rr2.wav
lovel=96
hivel=120
lorand=0.250
hirand=0.500
pitch_keycenter=63
amp_velcurve_120=1

<region>
sample=sustain\eb4_ff_rr2.wav
lovel=121
lorand=0.250
hirand=0.500
pitch_keycenter=63

<region>
sample=sustain\eb4_pp_rr3.wav
hivel=60
lorand=0.500
hirand=0.750
pitch_keycenter=63
amp_velcurve_60=1

<region>
sample=sustain\eb4_p_rr3.wav
lovel=61
hivel=95
lorand=0.500
hirand=0.750
pitch_keycenter=63
amp_velcurve_95=1

<region>
sample=sustain\eb4_f_rr3.wav
lovel=96
hivel=120
lorand=0.500
hirand=0.750
pitch_keycenter=63
amp_velcurve_120=1

<region>
sample=sustain\eb4_ff_rr3.wav
lovel=121
lorand=0.500
hirand=0.750
pitch_keycenter=63

<region>
sample=sustain\eb4_pp_rr4.wav
hivel=60
lorand=0.750
pitch_keycenter=63
amp_velcurve_60=1

<region>
sample=sustain\eb4_p_rr4.wav
lovel=61
hivel=95
lorand=0.750
pitch_keycenter=63
amp_velcurve_95=1

<region>
sample=sustain\eb4_f_rr4.wav
lovel=96
hivel=120
lorand=0.750
pitch_keycenter=63
amp_velcurve_120=1

<region>
sample=sustain\eb4_ff_rr4.wav
lovel=121
lorand=0.750
pitch_keycenter=63

//========================
<group>
lokey=65
hikey=67
ampeg_release=0.300

<region>
sample=sustain\gb4_pp_rr1.wav
hivel=60
hirand=0.250
pitch_keycenter=66
amp_velcurve_60=1

<region>
sample=sustain\gb4_p_rr1.wav
lovel=61
hivel=95
hirand=0.250
pitch_keycenter=66
amp_velcurve_95=1

<region>
sample=sustain\gb4_f_rr1.wav
lovel=96
hivel=120
hirand=0.250
pitch_keycenter=66
amp_velcurve_120=1

<region>
sample=sustain\gb4_ff_rr1.wav
lovel=121
hirand=0.250
pitch_keycenter=66

<region>
sample=sustain\gb4_pp_rr2.wav
hivel=60
lorand=0.250
hirand=0.500
pitch_keycenter=66
amp_velcurve_60=1

<region>
sample=sustain\gb4_p_rr2.wav
lovel=61
hivel=95
lorand=0.250
hirand=0.500
pitch_keycenter=66
amp_velcurve_95=1

<region>
sample=sustain\gb4_f_rr2.wav
lovel=96
hivel=120
lorand=0.250
hirand=0.500
pitch_keycenter=66
amp_velcurve_120=1

<region>
sample=sustain\gb4_ff_rr2.wav
lovel=121
lorand=0.250
hirand=0.500
pitch_keycenter=66

<region>
sample=sustain\gb4_pp_rr3.wav
hivel=60
lorand=0.500
hirand=0.750
pitch_keycenter=66
amp_velcurve_60=1

<region>
sample=sustain\gb4_p_rr3.wav
lovel=61
hivel=95
lorand=0.500
hirand=0.750
pitch_keycenter=66
amp_velcurve_95=1

<region>
sample=sustain\gb4_f_rr3.wav
lovel=96
hivel=120
lorand=0.500
hirand=0.750
pitch_keycenter=66
amp_velcurve_120=1

<region>
sample=sustain\gb4_ff_rr3.wav
lovel=121
lorand=0.500
hirand=0.750
pitch_keycenter=66

<region>
sample=sustain\gb4_pp_rr4.wav
hivel=60
lorand=0.750
pitch_keycenter=66
amp_velcurve_60=1

<region>
sample=sustain\gb4_p_rr4.wav
lovel=61
hivel=95
lorand=0.750
pitch_keycenter=66
amp_velcurve_95=1

<region>
sample=sustain\gb4_f_rr4.wav
lovel=96
hivel=120
lorand=0.750
pitch_keycenter=66
amp_velcurve_120=1

<region>
sample=sustain\gb4_ff_rr4.wav
lovel=121
lorand=0.750
pitch_keycenter=66

//========================
<group>
lokey=68
hikey=70
ampeg_release=0.300

<region>
sample=sustain\a4_pp_rr1.wav
hivel=60
hirand=0.250
pitch_keycenter=69
amp_velcurve_60=1

<region>
sample=sustain\a4_p_rr1.wav
lovel=61
hivel=95
hirand=0.250
pitch_keycenter=69
amp_velcurve_95=1

<region>
sample=sustain\a4_f_rr1.wav
lovel=96
hivel=120
hirand=0.250
pitch_keycenter=69
amp_velcurve_120=1

<region>
sample=sustain\a4_ff_rr1.wav
lovel=121
hirand=0.250
pitch_keycenter=69

<region>
sample=sustain\a4_pp_rr2.wav
hivel=60
lorand=0.250
hirand=0.500
pitch_keycenter=69
amp_velcurve_60=1

<region>
sample=sustain\a4_p_rr2.wav
lovel=61
hivel=95
lorand=0.250
hirand=0.500
pitch_keycenter=69
amp_velcurve_95=1

<region>
sample=sustain\a4_f_rr2.wav
lovel=96
hivel=120
lorand=0.250
hirand=0.500
pitch_keycenter=69
amp_velcurve_120=1

<region>
sample=sustain\a4_ff_rr2.wav
lovel=121
lorand=0.250
hirand=0.500
pitch_keycenter=69

<region>
sample=sustain\a4_pp_rr3.wav
hivel=60
lorand=0.500
hirand=0.750
pitch_keycenter=69
amp_velcurve_60=1

<region>
sample=sustain\a4_p_rr3.wav
lovel=61
hivel=95
lorand=0.500
hirand=0.750
pitch_keycenter=69
amp_velcurve_95=1

<region>
sample=sustain\a4_f_rr3.wav
lovel=96
hivel=120
lorand=0.500
hirand=0.750
pitch_keycenter=69
amp_velcurve_120=1

<region>
sample=sustain\a4_ff_rr3.wav
lovel=121
lorand=0.500
hirand=0.750
pitch_keycenter=69

<region>
sample=sustain\a4_pp_rr4.wav
hivel=60
lorand=0.750
pitch_keycenter=69
amp_velcurve_60=1

<region>
sample=sustain\a4_p_rr4.wav
lovel=61
hivel=95
lorand=0.750
pitch_keycenter=69
amp_velcurve_95=1

<region>
sample=sustain\a4_f_rr4.wav
lovel=96
hivel=120
lorand=0.750
pitch_keycenter=69
amp_velcurve_120=1

<region>
sample=sustain\a4_ff_rr4.wav
lovel=121
lorand=0.750
pitch_keycenter=69

//========================
<group>
lokey=71
hikey=73
ampeg_release=0.300

<region>
sample=sustain\c5_pp_rr1.wav
hivel=60
hirand=0.250
pitch_keycenter=72
amp_velcurve_60=1

<region>
sample=sustain\c5_p_rr1.wav
lovel=61
hivel=95
hirand=0.250
pitch_keycenter=72
amp_velcurve_95=1

<region>
sample=sustain\c5_f_rr1.wav
lovel=96
hivel=120
hirand=0.250
pitch_keycenter=72
amp_velcurve_120=1

<region>
sample=sustain\c5_ff_rr1.wav
lovel=121
hirand=0.250
pitch_keycenter=72

<region>
sample=sustain\c5_pp_rr2.wav
hivel=60
lorand=0.250
hirand=0.500
pitch_keycenter=72
amp_velcurve_60=1

<region>
sample=sustain\c5_p_rr2.wav
lovel=61
hivel=95
lorand=0.250
hirand=0.500
pitch_keycenter=72
amp_velcurve_95=1

<region>
sample=sustain\c5_f_rr2.wav
lovel=96
hivel=120
lorand=0.250
hirand=0.500
pitch_keycenter=72
amp_velcurve_120=1

<region>
sample=sustain\c5_ff_rr2.wav
lovel=121
lorand=0.250
hirand=0.500
pitch_keycenter=72

<region>
sample=sustain\c5_pp_rr3.wav
hivel=60
lorand=0.500
hirand=0.750
pitch_keycenter=72
amp_velcurve_60=1

<region>
sample=sustain\c5_p_rr3.wav
lovel=61
hivel=95
lorand=0.500
hirand=0.750
pitch_keycenter=72
amp_velcurve_95=1

<region>
sample=sustain\c5_f_rr3.wav
lovel=96
hivel=120
lorand=0.500
hirand=0.750
pitch_keycenter=72
amp_velcurve_120=1

<region>
sample=sustain\c5_ff_rr3.wav
lovel=121
lorand=0.500
hirand=0.750
pitch_keycenter=72

<region>
sample=sustain\c5_pp_rr4.wav
hivel=60
lorand=0.750
pitch_keycenter=72
amp_velcurve_60=1

<region>
sample=sustain\c5_p_rr4.wav
lovel=61
hivel=95
lorand=0.750
pitch_keycenter=72
amp_velcurve_95=1

<region>
sample=sustain\c5_f_rr4.wav
lovel=96
hivel=120
lorand=0.750
pitch_keycenter=72
amp_velcurve_120=1

<region>
sample=sustain\c5_ff_rr4.wav
lovel=121
lorand=0.750
pitch_keycenter=72

//========================
<group>
lokey=74
hikey=79
ampeg_release=0.300

<region>
sample=sustain\eb5_pp_rr1.wav
hivel=60
hirand=0.250
pitch_keycenter=75
amp_velcurve_60=1

<region>
sample=sustain\eb5_p_rr1.wav
lovel=61
hivel=95
hirand=0.250
pitch_keycenter=75
amp_velcurve_95=1

<region>
sample=sustain\eb5_f_rr1.wav
lovel=96
hivel=120
hirand=0.250
pitch_keycenter=75
amp_velcurve_120=1

<region>
sample=sustain\eb5_ff_rr1.wav
lovel=121
hirand=0.250
pitch_keycenter=75

<region>
sample=sustain\eb5_pp_rr2.wav
hivel=60
lorand=0.250
hirand=0.500
pitch_keycenter=75
amp_velcurve_60=1

<region>
sample=sustain\eb5_p_rr2.wav
lovel=61
hivel=95
lorand=0.250
hirand=0.500
pitch_keycenter=75
amp_velcurve_95=1

<region>
sample=sustain\eb5_f_rr2.wav
lovel=96
hivel=120
lorand=0.250
hirand=0.500
pitch_keycenter=75
amp_velcurve_120=1

<region>
sample=sustain\eb5_ff_rr2.wav
lovel=121
lorand=0.250
hirand=0.500
pitch_keycenter=75

<region>
sample=sustain\eb5_pp_rr3.wav
hivel=60
lorand=0.500
hirand=0.750
pitch_keycenter=75
amp_velcurve_60=1

<region>
sample=sustain\eb5_p_rr3.wav
lovel=61
hivel=95
lorand=0.500
hirand=0.750
pitch_keycenter=75
amp_velcurve_95=1

<region>
sample=sustain\eb5_f_rr3.wav
lovel=96
hivel=120
lorand=0.500
hirand=0.750
pitch_keycenter=75
amp_velcurve_120=1

<region>
sample=sustain\eb5_ff_rr3.wav
lovel=121
lorand=0.500
hirand=0.750
pitch_keycenter=75

<region>
sample=sustain\eb5_pp_rr4.wav
hivel=60
lorand=0.750
pitch_keycenter=75
amp_velcurve_60=1

<region>
sample=sustain\eb5_p_rr4.wav
lovel=61
hivel=95
lorand=0.750
pitch_keycenter=75
amp_velcurve_95=1

<region>
sample=sustain\eb5_f_rr4.wav
lovel=96
hivel=120
lorand=0.750
pitch_keycenter=75
amp_velcurve_120=1

<region>
sample=sustain\eb5_ff_rr4.wav
lovel=121
lorand=0.750
pitch_keycenter=75
